<svg xmlns="http://www.w3.org/2000/svg" xmlns:xlink="http://www.w3.org/1999/xlink" width="500" zoomAndPan="magnify" viewBox="0 0 375 374.999991" height="500" preserveAspectRatio="xMidYMid meet" version="1.0"><defs><clipPath id="cf62f4ec67"><path d="M 0 22.5 L 0 352.5 C 0 364.925781 10.074219 375 22.5 375 L 352.5 375 C 364.925781 375 375 364.925781 375 352.5 L 375 22.5 C 375 10.074219 364.925781 0 352.5 0 L 22.5 0 C 10.074219 0 0 10.074219 0 22.5 Z M 0 22.5 " clip-rule="nonzero"/></clipPath><clipPath id="fc8016c400"><path d="M 30.457031 35.824219 L 344.707031 35.824219 L 344.707031 338.824219 L 30.457031 338.824219 Z M 30.457031 35.824219 " clip-rule="nonzero"/></clipPath><clipPath id="d1913ee231"><path d="M 289.230469 12.519531 L 342.882812 12.519531 L 342.882812 73.058594 L 289.230469 73.058594 Z M 289.230469 12.519531 " clip-rule="nonzero"/></clipPath></defs><g clip-path="url(#cf62f4ec67)"><rect x="-37.5" width="450" fill="#000000" y="-37.499999" height="449.999989" fill-opacity="1"/></g><g clip-path="url(#fc8016c400)"><path fill="#ffffff" d="M 30.457031 338.808594 L 30.457031 330.726562 C 41.6875 328.980469 50.296875 325.339844 56.277344 319.804688 C 62.257812 314.269531 68.53125 303.640625 75.097656 287.910156 L 178.601562 35.816406 L 186.699219 35.816406 L 296.988281 289.222656 C 304.429688 306.40625 310.847656 317.546875 316.246094 322.644531 C 321.644531 327.597656 331.125 330.289062 344.695312 330.726562 L 344.695312 338.808594 L 223.683594 338.808594 L 223.683594 330.726562 C 237.539062 329.5625 246.441406 327.230469 250.378906 323.738281 C 254.464844 320.242188 256.503906 315.726562 256.503906 310.191406 C 256.503906 303.347656 253.148438 292.207031 246.4375 276.769531 L 170.945312 103.097656 L 100.917969 274.585938 C 94.355469 290.457031 91.070312 302.109375 91.070312 309.535156 C 91.070312 315.652344 93.113281 320.53125 97.199219 324.171875 C 101.285156 327.667969 109.527344 329.851562 121.925781 330.726562 L 121.925781 338.808594 Z M 30.457031 338.808594 " fill-opacity="1" fill-rule="nonzero"/></g><g clip-path="url(#d1913ee231)"><path fill="#000000" d="M 289.230469 12.519531 L 342.882812 12.519531 L 342.882812 73.089844 L 289.230469 73.089844 Z M 289.230469 12.519531 " fill-opacity="1" fill-rule="nonzero"/></g></svg>