<svg width="1673" height="442" viewBox="0 0 1673 442" fill="none" xmlns="http://www.w3.org/2000/svg">
<rect width="1673" height="442" fill="#F5F5F5"/>
<rect width="1673" height="442" fill="white"/>
<g clip-path="url(#clip0_0_1)">
<mask id="mask0_0_1" style="mask-type:luminance" maskUnits="userSpaceOnUse" x="204" y="130" width="276" height="249">
<path d="M204 144.94V364.06C204 372.311 211.415 379 220.56 379H463.44C472.585 379 480 372.311 480 364.06V144.94C480 136.689 472.585 130 463.44 130H220.56C211.415 130 204 136.689 204 144.94Z" fill="white"/>
</mask>
<g mask="url(#mask0_0_1)">
<path d="M507.6 105.1H176.4V403.9H507.6V105.1Z" fill="white"/>
</g>
<mask id="mask1_0_1" style="mask-type:luminance" maskUnits="userSpaceOnUse" x="226" y="153" width="232" height="202">
<path d="M226.416 153.787H457.704V354.979H226.416V153.787Z" fill="white"/>
</mask>
<g mask="url(#mask1_0_1)">
<path d="M226.416 355.202V349.83C234.679 348.668 241.01 346.248 245.409 342.568C249.81 338.89 254.425 331.822 259.252 321.367L335.39 153.782H341.347L422.474 322.238C427.948 333.661 432.669 341.069 436.639 344.456C440.61 347.748 447.584 349.54 457.566 349.83V355.202H368.551V349.83C378.745 349.055 385.292 347.506 388.187 345.182C391.194 342.858 392.695 339.857 392.695 336.18C392.695 331.63 390.228 324.222 385.292 313.961L329.755 198.508L278.247 312.509C273.417 323.06 271.005 330.805 271.005 335.744C271.005 339.811 272.506 343.053 275.51 345.473C278.514 347.797 284.578 349.249 293.7 349.83V355.202H226.416Z" fill="black"/>
</g>
<mask id="mask2_0_1" style="mask-type:luminance" maskUnits="userSpaceOnUse" x="416" y="138" width="41" height="41">
<path d="M416.874 138.313H456.362V178.511H416.874V138.313Z" fill="white"/>
</mask>
<g mask="url(#mask2_0_1)">
<path d="M416.874 138.313H456.362V178.532H416.874V138.313Z" fill="white"/>
</g>
</g>
<path d="M498.422 355H473.031L546.469 155H571.469L644.906 355H619.516L559.75 186.641H558.188L498.422 355ZM507.797 276.875H610.141V298.359H507.797V276.875ZM807.309 155H831.527V287.422C831.527 301.094 828.305 313.301 821.859 324.043C815.479 334.72 806.462 343.151 794.809 349.336C783.155 355.456 769.483 358.516 753.793 358.516C738.103 358.516 724.431 355.456 712.777 349.336C701.124 343.151 692.074 334.72 685.629 324.043C679.249 313.301 676.059 301.094 676.059 287.422V155H700.277V285.469C700.277 295.234 702.426 303.926 706.723 311.543C711.02 319.095 717.139 325.052 725.082 329.414C733.09 333.711 742.66 335.859 753.793 335.859C764.926 335.859 774.496 333.711 782.504 329.414C790.512 325.052 796.632 319.095 800.863 311.543C805.16 303.926 807.309 295.234 807.309 285.469V155ZM1016.61 217.5C1014.46 210.924 1011.63 205.033 1008.11 199.824C1004.66 194.551 1000.53 190.059 995.712 186.348C990.959 182.637 985.556 179.805 979.501 177.852C973.446 175.898 966.806 174.922 959.579 174.922C947.73 174.922 936.955 177.982 927.255 184.102C917.554 190.221 909.84 199.238 904.11 211.152C898.381 223.066 895.517 237.682 895.517 255C895.517 272.318 898.414 286.934 904.208 298.848C910.002 310.762 917.847 319.779 927.743 325.898C937.639 332.018 948.772 335.078 961.142 335.078C972.6 335.078 982.691 332.637 991.415 327.754C1000.2 322.806 1007.04 315.84 1011.92 306.855C1016.87 297.806 1019.34 287.161 1019.34 274.922L1026.77 276.484H966.61V255H1042.78V276.484C1042.78 292.956 1039.27 307.279 1032.24 319.453C1025.27 331.628 1015.63 341.068 1003.33 347.773C991.09 354.414 977.027 357.734 961.142 357.734C943.433 357.734 927.873 353.568 914.462 345.234C901.116 336.901 890.699 325.052 883.212 309.687C875.79 294.323 872.079 276.094 872.079 255C872.079 239.18 874.195 224.954 878.427 212.324C882.724 199.629 888.778 188.822 896.591 179.902C904.403 170.983 913.648 164.147 924.325 159.395C935.002 154.642 946.754 152.266 959.579 152.266C970.126 152.266 979.957 153.861 989.071 157.051C998.251 160.176 1006.42 164.635 1013.58 170.43C1020.81 176.159 1026.83 183.027 1031.65 191.035C1036.47 198.978 1039.79 207.799 1041.61 217.5H1016.61ZM1084.26 355V155H1204.96V176.484H1108.48V244.062H1198.71V265.547H1108.48V333.516H1206.53V355H1084.26ZM1248.62 355V155H1316.2C1331.82 155 1344.65 157.669 1354.67 163.008C1364.7 168.281 1372.12 175.54 1376.94 184.785C1381.76 194.03 1384.16 204.544 1384.16 216.328C1384.16 228.112 1381.76 238.561 1376.94 247.676C1372.12 256.79 1364.73 263.952 1354.77 269.16C1344.81 274.303 1332.08 276.875 1316.59 276.875H1261.9V255H1315.8C1326.48 255 1335.08 253.437 1341.59 250.312C1348.16 247.187 1352.91 242.76 1355.84 237.031C1358.84 231.237 1360.34 224.336 1360.34 216.328C1360.34 208.32 1358.84 201.322 1355.84 195.332C1352.85 189.342 1348.06 184.72 1341.49 181.465C1334.91 178.145 1326.22 176.484 1315.41 176.484H1272.84V355H1248.62ZM1342.76 265.156L1391.98 355H1363.85L1315.41 265.156H1342.76Z" fill="black"/>
<defs>
<clipPath id="clip0_0_1">
<rect width="276" height="249" fill="white" transform="translate(204 130)"/>
</clipPath>
</defs>
</svg>
