<svg width="1306" height="379" viewBox="0 0 1306 379" fill="none" xmlns="http://www.w3.org/2000/svg">
<path d="M309.601 350H283.287L359.395 142.727H385.304L461.412 350H435.098L373.159 175.518H371.54L309.601 350ZM319.317 269.034H425.382V291.3H319.317V269.034ZM629.72 142.727H654.819V279.964C654.819 294.134 651.479 306.784 644.8 317.917C638.188 328.983 628.843 337.72 616.765 344.13C604.688 350.472 590.519 353.643 574.258 353.643C557.998 353.643 543.828 350.472 531.751 344.13C519.674 337.72 510.295 328.983 503.615 317.917C497.003 306.784 493.697 294.134 493.697 279.964V142.727H518.797V277.94C518.797 288.061 521.023 297.069 525.476 304.963C529.929 312.789 536.272 318.963 544.503 323.484C552.802 327.937 562.721 330.163 574.258 330.163C585.796 330.163 595.714 327.937 604.013 323.484C612.312 318.963 618.654 312.789 623.04 304.963C627.493 297.069 629.72 288.061 629.72 277.94V142.727ZM846.633 207.5C844.406 200.685 841.471 194.579 837.828 189.181C834.252 183.716 829.967 179.061 824.974 175.215C820.049 171.369 814.449 168.434 808.174 166.41C801.899 164.386 795.017 163.374 787.527 163.374C775.248 163.374 764.081 166.545 754.028 172.887C743.975 179.229 735.979 188.574 730.042 200.922C724.104 213.269 721.135 228.416 721.135 246.364C721.135 264.311 724.138 279.458 730.143 291.806C736.148 304.153 744.278 313.498 754.534 319.84C764.79 326.183 776.327 329.354 789.147 329.354C801.022 329.354 811.48 326.824 820.521 321.763C829.63 316.635 836.714 309.416 841.775 300.105C846.902 290.726 849.466 279.695 849.466 267.01L857.158 268.629H794.814V246.364H873.756V268.629C873.756 285.7 870.113 300.543 862.826 313.161C855.606 325.778 845.62 335.561 832.868 342.511C820.184 349.393 805.61 352.834 789.147 352.834C770.794 352.834 754.669 348.516 740.77 339.879C726.938 331.243 716.142 318.963 708.383 303.04C700.691 287.116 696.846 268.224 696.846 246.364C696.846 229.968 699.038 215.225 703.424 202.136C707.877 188.979 714.152 177.779 722.249 168.535C730.345 159.292 739.926 152.207 750.992 147.282C762.057 142.356 774.236 139.893 787.527 139.893C798.458 139.893 808.646 141.547 818.092 144.853C827.606 148.091 836.073 152.713 843.495 158.718C850.984 164.656 857.226 171.774 862.218 180.073C867.211 188.304 870.652 197.447 872.542 207.5H846.633ZM916.744 350V142.727H1041.84V164.993H941.843V235.028H1035.36V257.294H941.843V327.734H1043.46V350H916.744ZM1087.08 350V142.727H1157.11C1173.3 142.727 1186.6 145.494 1196.99 151.026C1207.38 156.491 1215.07 164.015 1220.06 173.596C1225.06 183.176 1227.55 194.073 1227.55 206.286C1227.55 218.498 1225.06 229.327 1220.06 238.773C1215.07 248.219 1207.41 255.641 1197.09 261.039C1186.77 266.369 1173.57 269.034 1157.52 269.034H1100.84V246.364H1156.71C1167.77 246.364 1176.68 244.744 1183.43 241.506C1190.24 238.267 1195.17 233.679 1198.2 227.741C1201.31 221.737 1202.86 214.585 1202.86 206.286C1202.86 197.986 1201.31 190.733 1198.2 184.526C1195.1 178.319 1190.14 173.528 1183.32 170.154C1176.51 166.713 1167.5 164.993 1156.3 164.993H1112.18V350H1087.08ZM1184.64 256.889L1235.65 350H1206.5L1156.3 256.889H1184.64Z" fill="black"/>
<g clip-path="url(#clip0_1_2)">
<mask id="mask0_1_2" style="mask-type:luminance" maskUnits="userSpaceOnUse" x="22" y="148" width="232" height="202">
<path d="M22.4164 148.787H253.704V349.979H22.4164V148.787Z" fill="white"/>
</mask>
<g mask="url(#mask0_1_2)">
<path d="M22.4164 350.202V344.83C30.6791 343.668 37.0099 341.248 41.4086 337.568C45.8103 333.89 50.4246 326.822 55.2518 316.367L131.39 148.782H137.347L218.474 317.238C223.948 328.661 228.669 336.069 232.639 339.456C236.61 342.748 243.584 344.54 253.566 344.83V350.202H164.551V344.83C174.745 344.055 181.292 342.506 184.187 340.182C187.194 337.858 188.695 334.857 188.695 331.18C188.695 326.63 186.228 319.222 181.292 308.961L125.755 193.508L74.2469 307.509C69.4169 318.06 67.0048 325.805 67.0048 330.744C67.0048 334.811 68.5055 338.053 71.5099 340.473C74.5143 342.797 80.5776 344.249 89.7 344.83V350.202H22.4164Z" fill="black"/>
</g>
</g>
<defs>
<clipPath id="clip0_1_2">
<rect width="276" height="249" fill="white" transform="translate(0 125)"/>
</clipPath>
</defs>
</svg>
