<svg xmlns="http://www.w3.org/2000/svg" xmlns:xlink="http://www.w3.org/1999/xlink" width="500" zoomAndPan="magnify" viewBox="0 0 375 374.999991" height="500" preserveAspectRatio="xMidYMid meet" version="1.0"><defs><clipPath id="5772e960fb"><path d="M 0 22.5 L 0 352.5 C 0 364.925781 10.074219 375 22.5 375 L 352.5 375 C 364.925781 375 375 364.925781 375 352.5 L 375 22.5 C 375 10.074219 364.925781 0 352.5 0 L 22.5 0 C 10.074219 0 0 10.074219 0 22.5 Z M 0 22.5 " clip-rule="nonzero"/></clipPath><clipPath id="582ef366cb"><path d="M 30.457031 35.824219 L 344.707031 35.824219 L 344.707031 338.824219 L 30.457031 338.824219 Z M 30.457031 35.824219 " clip-rule="nonzero"/></clipPath><clipPath id="a4734e7d54"><path d="M 289.230469 12.519531 L 342.882812 12.519531 L 342.882812 73.058594 L 289.230469 73.058594 Z M 289.230469 12.519531 " clip-rule="nonzero"/></clipPath></defs><g clip-path="url(#5772e960fb)"><rect x="-37.5" width="450" fill="#ffffff" y="-37.499999" height="449.999989" fill-opacity="1"/></g><g clip-path="url(#582ef366cb)"><path fill="#000000" d="M 30.457031 339.160156 L 30.457031 331.070312 C 41.683594 329.320312 50.285156 325.675781 56.261719 320.132812 C 62.242188 314.59375 68.511719 303.949219 75.070312 288.203125 L 178.519531 35.816406 L 186.613281 35.816406 L 296.839844 289.515625 C 304.277344 306.71875 310.691406 317.875 316.085938 322.976562 C 321.480469 327.933594 330.957031 330.632812 344.519531 331.070312 L 344.519531 339.160156 L 223.574219 339.160156 L 223.574219 331.070312 C 237.425781 329.902344 246.320312 327.570312 250.253906 324.070312 C 254.339844 320.570312 256.378906 316.050781 256.378906 310.511719 C 256.378906 303.660156 253.027344 292.503906 246.320312 277.050781 L 170.863281 103.175781 L 100.878906 274.863281 C 94.316406 290.753906 91.039062 302.417969 91.039062 309.855469 C 91.039062 315.980469 93.078125 320.863281 97.160156 324.507812 C 101.242188 328.007812 109.480469 330.195312 121.875 331.070312 L 121.875 339.160156 Z M 30.457031 339.160156 " fill-opacity="1" fill-rule="nonzero"/></g><g clip-path="url(#a4734e7d54)"><path fill="#ffffff" d="M 289.230469 12.519531 L 342.882812 12.519531 L 342.882812 73.089844 L 289.230469 73.089844 Z M 289.230469 12.519531 " fill-opacity="1" fill-rule="nonzero"/></g></svg>