<svg width="48" height="48" viewBox="0 0 48 48" fill="none" xmlns="http://www.w3.org/2000/svg">
<path d="M17.7228 2.23792V6.54794M30.6529 2.23792V6.54794M17.7228 41.0281V45.3382M30.6529 41.0281V45.3382M41.4279 17.323H45.7379M41.4279 28.0981H45.7379M2.6377 17.323H6.94772M2.6377 28.0981H6.94772M17.2918 41.0281H31.0839C34.7046 41.0281 36.515 41.0281 37.8979 40.3235C39.1144 39.7037 40.1034 38.7146 40.7233 37.4982C41.4279 36.1152 41.4279 34.3048 41.4279 30.6841V16.892C41.4279 13.2712 41.4279 11.4609 40.7233 10.0779C40.1034 8.86144 39.1144 7.87241 37.8979 7.25259C36.515 6.54794 34.7046 6.54794 31.0839 6.54794H17.2918C13.671 6.54794 11.8606 6.54794 10.4777 7.25259C9.26122 7.87241 8.27219 8.86144 7.65237 10.0779C6.94772 11.4609 6.94772 13.2712 6.94772 16.892V30.6841C6.94772 34.3048 6.94772 36.1152 7.65237 37.4982C8.27219 38.7146 9.26122 39.7037 10.4777 40.3235C11.8606 41.0281 13.671 41.0281 17.2918 41.0281ZM21.1708 30.2531H27.2048C28.4118 30.2531 29.0152 30.2531 29.4762 30.0182C29.8817 29.8116 30.2114 29.4819 30.418 29.0764C30.6529 28.6154 30.6529 28.012 30.6529 26.8051V20.771C30.6529 19.5641 30.6529 18.9606 30.418 18.4997C30.2114 18.0942 29.8817 17.7645 29.4762 17.5579C29.0152 17.323 28.4118 17.323 27.2048 17.323H21.1708C19.9639 17.323 19.3604 17.323 18.8994 17.5579C18.4939 17.7645 18.1643 18.0942 17.9577 18.4997C17.7228 18.9606 17.7228 19.5641 17.7228 20.771V26.8051C17.7228 28.012 17.7228 28.6154 17.9577 29.0764C18.1643 29.4819 18.4939 29.8116 18.8994 30.0182C19.3604 30.2531 19.9639 30.2531 21.1708 30.2531Z" stroke="white" stroke-width="4.31002" stroke-linecap="round" stroke-linejoin="round"/>
</svg>
