<svg width="48" height="48" viewBox="0 0 48 48" fill="none" xmlns="http://www.w3.org/2000/svg">
<path d="M6.56491 36.7043V36.2733C6.56491 32.6526 6.56491 30.8422 7.26955 29.4592C7.88938 28.2428 8.8784 27.2537 10.0949 26.6339C11.4778 25.9293 13.2882 25.9293 16.909 25.9293H30.701C34.3218 25.9293 36.1322 25.9293 37.5151 26.6339C38.7316 27.2537 39.7206 28.2428 40.3405 29.4592C41.0451 30.8422 41.0451 32.6526 41.0451 36.2733V36.7043M6.56491 36.7043C4.18455 36.7043 2.25488 38.634 2.25488 41.0143C2.25488 43.3947 4.18455 45.3244 6.56491 45.3244C8.94527 45.3244 10.8749 43.3947 10.8749 41.0143C10.8749 38.634 8.94527 36.7043 6.56491 36.7043ZM41.0451 36.7043C38.6647 36.7043 36.7351 38.634 36.7351 41.0143C36.7351 43.3947 38.6647 45.3244 41.0451 45.3244C43.4255 45.3244 45.3551 43.3947 45.3551 41.0143C45.3551 38.634 43.4255 36.7043 41.0451 36.7043ZM23.805 36.7043C21.4246 36.7043 19.495 38.634 19.495 41.0143C19.495 43.3947 21.4246 45.3244 23.805 45.3244C26.1854 45.3244 28.115 43.3947 28.115 41.0143C28.115 38.634 26.1854 36.7043 23.805 36.7043ZM23.805 36.7043V15.1542M10.8749 15.1542H36.7351C38.7433 15.1542 39.7474 15.1542 40.5395 14.8261C41.5955 14.3887 42.4346 13.5496 42.872 12.4935C43.2001 11.7015 43.2001 10.6974 43.2001 8.68916C43.2001 6.68094 43.2001 5.67683 42.872 4.88477C42.4346 3.82869 41.5955 2.98964 40.5395 2.5522C39.7474 2.22412 38.7433 2.22412 36.7351 2.22412H10.8749C8.86671 2.22412 7.8626 2.22412 7.07054 2.5522C6.01447 2.98964 5.17542 3.82869 4.73798 4.88477C4.4099 5.67683 4.40989 6.68094 4.40989 8.68916C4.40989 10.6974 4.4099 11.7015 4.73798 12.4935C5.17542 13.5496 6.01447 14.3887 7.07054 14.8261C7.8626 15.1542 8.86671 15.1542 10.8749 15.1542Z" stroke="white" stroke-width="4.31002" stroke-linecap="round" stroke-linejoin="round"/>
</svg>
